<svg width="17" height="15" viewBox="0 0 17 15" fill="none" xmlns="http://www.w3.org/2000/svg">
<path fill-rule="evenodd" clip-rule="evenodd" d="M6 2.5C6 3.32843 5.32843 4 4.5 4C3.67157 4 3 3.32843 3 2.5C3 1.67157 3.67157 1 4.5 1C5.32843 1 6 1.67157 6 2.5ZM6.94999 3H16.5C16.7761 3 17 2.77614 17 2.5C17 2.22386 16.7761 2 16.5 2H6.94999C6.71836 0.85888 5.70948 0 4.5 0C3.29052 0 2.28164 0.85888 2.05001 2H0.5C0.223858 2 0 2.22386 0 2.5C0 2.77614 0.223858 3 0.5 3H2.05001C2.28164 4.14112 3.29052 5 4.5 5C5.70948 5 6.71836 4.14112 6.94999 3ZM0.5 12H2.05001C2.28164 10.8589 3.29052 10 4.5 10C5.70948 10 6.71836 10.8589 6.94999 12H16.5C16.7761 12 17 12.2239 17 12.5C17 12.7761 16.7761 13 16.5 13H6.94999C6.71836 14.1411 5.70948 15 4.5 15C3.29052 15 2.28164 14.1411 2.05001 13H0.5C0.223858 13 0 12.7761 0 12.5C0 12.2239 0.223858 12 0.5 12ZM4.5 14C3.67157 14 3 13.3284 3 12.5C3 11.6716 3.67157 11 4.5 11C5.32843 11 6 11.6716 6 12.5C6 13.3284 5.32843 14 4.5 14ZM16.5 8C16.7761 8 17 7.77614 17 7.5C17 7.22386 16.7761 7 16.5 7H15.5214C15.2898 5.85888 14.2809 5 13.0714 5C11.8569 5 10.8447 5.86599 10.6186 7.01415C10.5806 7.0049 10.5409 7 10.5 7H0.5C0.223858 7 0 7.22386 0 7.5C0 7.77614 0.223858 8 0.5 8H10.5C10.5409 8 10.5806 7.9951 10.6186 7.98585C10.8447 9.13401 11.8569 10 13.0714 10C14.2809 10 15.2898 9.14112 15.5214 8H16.5ZM14.5714 7.5C14.5714 8.32843 13.8998 9 13.0714 9C12.243 9 11.5714 8.32843 11.5714 7.5C11.5714 6.67157 12.243 6 13.0714 6C13.8998 6 14.5714 6.67157 14.5714 7.5Z" fill="#B5B5B5"/>
</svg>
